<svg width="32" height="32" viewBox="0 0 32 32" xmlns="http://www.w3.org/2000/svg">
    <g fill-rule="evenodd">
        <path d="M16 0C7.178 0 0 7.177 0 16s7.178 16 16 16 16-7.177 16-16S24.822 0 16 0zm0 30.77C7.857 30.77 1.23 24.142 1.23 16S7.858 1.23 16 1.23 30.77 7.858 30.77 16 24.142 30.77 16 30.77z"/>
        <path d="M23.692 15.385h-7.077v-6.77c0-.34-.275-.615-.615-.615-.34 0-.615.275-.615.615v6.77H8.308c-.34 0-.616.275-.616.615 0 .34.276.615.616.615h7.077V24c0 .34.275.615.615.615.34 0 .615-.275.615-.615v-7.385h7.077c.34 0 .616-.275.616-.615 0-.34-.276-.615-.616-.615z"/>
    </g>
</svg>
