<?xml version="1.0" encoding="utf-8"?>
<!-- Generated by IcoMoon.io -->
<!DOCTYPE svg PUBLIC "-//W3C//DTD SVG 1.1//EN" "http://www.w3.org/Graphics/SVG/1.1/DTD/svg11.dtd">
<svg width="26px" height="6px" viewBox="0 0 26 6" version="1.1" xmlns="http://www.w3.org/2000/svg" xmlns:xlink="http://www.w3.org/1999/xlink">
	<path d="M22.1563685,3.72105374 C21.4025005,3.57381718 20.6751604,3.41951328 19.943333,3.29125388 C17.7428355,2.90555956 15.5225411,2.70322382 13.2897086,2.69301542 C9.24585076,2.67456177 5.27550558,3.20867054 1.39266294,4.34638373 C1.25632792,4.38630119 1.11827716,4.42975234 0.977982741,4.44650458 C0.520673096,4.50081851 0.0881756345,4.24521586 0.0147949239,3.88896884 C-0.0663725888,3.49502927 0.192835533,3.0641824 0.636419289,2.93670827 C1.4475665,2.70361645 2.26280508,2.4820418 3.08332284,2.28441763 C6.13693706,1.54902013 9.23687614,1.18531313 12.3789168,1.13479464 C15.6677188,1.08192035 18.9121756,1.42782809 22.1236376,2.1137541 C22.2409675,2.13888248 22.3585614,2.16204769 22.510734,2.19332728 C22.6230487,1.72046892 22.7332518,1.25729545 22.8430589,0.794121975 C22.868135,0.688111658 22.8921553,0.581839587 22.9168355,0.475698394 C22.9694954,0.249543051 23.0732315,0.019854031 23.3272924,0.0387003095 C23.5321249,0.053751157 23.7943685,0.144710626 23.9140741,0.294172085 C24.2753025,0.744781371 24.5867746,1.23556987 24.9035259,1.71981453 C25.2200132,2.20392831 25.5252822,2.69550208 25.8247442,3.19021689 C26.0867239,3.62315779 25.988267,3.90572109 25.5292416,4.1399908 C24.5634142,4.63300422 23.5986426,5.12850429 22.6383584,5.63185698 C22.4203279,5.74611254 22.2156274,5.82686361 21.9966731,5.65947201 C21.7906528,5.50202706 21.8002873,5.28948292 21.8526832,5.06502898 C21.9537797,4.63234983 22.0489371,4.19823104 22.1563685,3.72105374"></path>

</svg>
