<svg xmlns="http://www.w3.org/2000/svg" viewBox="0 0 32 32"><g fill-rule="evenodd"><path d="M29.0590884 23.7221458v4.0548582H2.9254068V23.722146H-.000021v4.0548583c0 1.5651823 1.309756 2.8340082 2.9254278 2.8340082h26.1336816c1.615672 0 2.9254277-1.268826 2.9254277-2.834008v-4.0548584h-2.9254276zM14.9465953 22.6514372c.582578.5637652 1.5086848.5637652 2.079979.0105264.0273737-.0265183.0524488-.054656.077106-.0827936l7.3873318-7.1562753c.5641898-.555668.562936-1.4489878-.0066865-2.0008097-.5712943-.5532388-1.497401-.5532388-2.0684864 0-.0110747.0107288-4.9608984 4.808907-4.9608984 4.808907V1.4170242c0-.3625506-.142719-.7253037-.4283662-1.0020243-.5712943-.553239-1.497401-.553239-2.0686953 0-.285647.2767206-.428366.6394737-.428366 1.0020243V18.239494l-4.9021812-4.748988c-.5731748-.5364372-1.4863262-.5319837-2.0519785.015992-.5656524.5479757-.5704584 1.4327935-.015672 1.987247.015672.0168016 7.386914 7.1576922 7.386914 7.1576922z"/></g></svg>
