<svg width="32" height="33" viewBox="0 -1 32 33" xmlns="http://www.w3.org/2000/svg"><path d="M31.996 15.166c-.02-.865-.165-1.926-.386-2.8 0 0-.047-.186-.23-.246l-.397-.132c-.047-.017-.085-.054-.1-.106-.015-.056.003-.112.04-.15v-.002l.28-.314s.128-.143.074-.325c-.245-.83-.663-1.816-1.105-2.605 0 0-.093-.166-.285-.178l-.42-.025c-.05-.005-.096-.03-.123-.077-.03-.05-.027-.11 0-.157l.188-.376s.085-.17-.014-.332c-.454-.74-1.116-1.586-1.75-2.235 0 0-.134-.136-.322-.1l-.41.084c-.05.007-.103-.006-.14-.044-.042-.04-.055-.098-.042-.15l.083-.412s.038-.186-.1-.317c-.632-.598-1.494-1.247-2.275-1.71 0 0-.165-.098-.337-.014l-.375.185c-.046.02-.1.022-.146-.005-.05-.03-.08-.08-.08-.135l-.027-.42s-.012-.188-.18-.28c-.766-.415-1.768-.82-2.645-1.07 0 0-.184-.05-.33.075l-.313.275c-.04.03-.092.046-.143.032-.057-.015-.098-.058-.112-.11h-.002L19.74.592s-.063-.18-.25-.225c-.848-.205-1.92-.34-2.833-.356 0 0-.013 0-.034.004-.053.004-.19.028-.274.153l-.233.347c-.03.04-.076.067-.13.067-.058 0-.108-.03-.136-.076l-.235-.35S15.51-.004 15.318 0c-.874.02-1.947.163-2.83.382 0 0-.187.046-.248.227l-.134.393c-.017.046-.055.084-.107.098-.057.016-.114-.002-.154-.04v.002l-.043-.037c-.018-.016-.038-.033-.06-.05l-.064-.06c-.02-.015-.037-.03-.058-.048-.028-.027-.06-.054-.093-.083 0 0-.145-.126-.33-.073-.838.244-1.837.657-2.634 1.095 0 0-.167.092-.18.282-.01.187-.02.32-.025.414-.004.05-.03.097-.077.124-.035.02-.075.024-.112.017l-.4-.197c-.042-.02-.085-.03-.125-.033-.064-.01-.15-.01-.235.042-.512.307-1.072.71-1.586 1.137-.238.19-.463.386-.664.577-.04.038-.065.08-.08.123-.027.055-.046.127-.03.212l.095.455c-.005.033-.018.064-.044.09-.037.037-.09.05-.138.042l-.412-.083c-.188-.038-.322.098-.322.098-.633.65-1.296 1.496-1.75 2.235-.1.162-.014.332-.014.332l.19.375c.025.05.027.107-.002.158-.027.046-.074.072-.124.077l-.42.025c-.19.012-.283.178-.283.178-.443.79-.86 1.776-1.106 2.606-.055.183.072.326.072.326l.28.314c.038.04.056.096.04.152-.014.052-.052.09-.1.106l-.397.132c-.182.06-.23.245-.23.245-.22.875-.366 1.936-.385 2.8-.004.19.156.296.156.296l.156.103c.025.016.048.03.07.046l.094.06.033.022v.002c.046.027.078.077.078.135 0 .052-.028.098-.068.127l-.35.23c-.16.104-.158.294-.158.294.016.903.153 1.966.36 2.806.046.184.228.245.228.245.176.06.305.102.4.133v.002c.054.015.097.055.113.11.014.052 0 .104-.033.142l-.278.31c-.127.143-.074.326-.074.326.25.867.66 1.86 1.08 2.617.093.167.285.178.285.178.185.01.32.02.422.026.055.002.108.03.137.08.027.046.027.1.006.144l-.187.372c-.085.17.014.333.014.333.47.773 1.124 1.626 1.728 2.25.133.138.32.1.32.1l.416-.083c.054-.013.112 0 .153.04.04.04.053.09.045.14l-.084.407c-.037.186.1.318.1.318.656.627 1.512 1.282 2.26 1.73.163.1.335.015.335.015l.38-.187c.048-.025.107-.027.158.002.047.026.073.073.078.122l.027.414c.01.19.18.283.18.283.796.438 1.795.852 2.634 1.094.185.054.33-.072.33-.072l.316-.278c.04-.037.097-.054.154-.04.016.005.03.012.044.02l.006.006c.012.01.024.02.033.032.03.09.077.23.148.436.062.18.248.228.248.228.884.218 1.957.363 2.83.382.025 0 .047-.002.07-.006l.048-.012c.002 0 .005 0 .007-.002.015-.005.03-.01.042-.017l.007-.004.035-.022.006-.005.03-.02c0-.003.003-.005.004-.006.01-.007.016-.014.023-.02l.004-.005.016-.017c0-.002.002-.002.003-.003l.013-.018.074-.11c.006-.01.01-.017.017-.025.07-.104.12-.183.162-.244 0-.003.003-.005.004-.008.028-.024.064-.04.105-.04.052 0 .1.028.128.068l.232.346c.106.16.298.156.298.156.91-.016 1.985-.15 2.834-.356.187-.046.248-.226.248-.226l.134-.397.002-.002c.014-.05.056-.094.112-.11.052-.014.103 0 .142.033.072.064.173.15.315.276.144.125.328.074.328.074.877-.248 1.88-.654 2.645-1.07.168-.09.18-.28.18-.28l.025-.42h.002c0-.054.03-.106.08-.135.046-.026.1-.026.145-.005l.376.185c.043.02.086.03.126.034.064.01.15.008.236-.044.51-.307 1.07-.71 1.585-1.136.238-.193.463-.388.664-.578.04-.04.065-.08.08-.123.027-.056.046-.13.03-.213-.04-.185-.066-.314-.085-.408-.008-.05.005-.1.043-.14.04-.04.1-.053.152-.04l.416.083s.19.037.32-.1c.605-.624 1.26-1.477 1.73-2.25 0 0 .098-.163.013-.334l-.187-.372c-.022-.045-.023-.1.004-.145.03-.05.082-.077.136-.078v-.002h.016c.006 0 .014 0 .02-.002.032 0 .067-.003.105-.005l.284-.017s.19-.012.284-.178c.42-.76.83-1.75 1.08-2.618 0 0 .053-.182-.074-.325l-.278-.31c-.032-.04-.046-.09-.032-.142.015-.056.06-.096.11-.11v-.002l.403-.133s.182-.06.228-.245c.207-.84.344-1.902.36-2.805 0 0 .003-.19-.157-.295-.16-.103-.27-.176-.35-.23-.04-.028-.068-.073-.068-.127 0-.058.03-.107.078-.135v-.002l.353-.23s.16-.104.156-.294zm-8.84 5.744c-2.834 3.91-8.34 4.808-12.292 2-3.953-2.804-4.858-8.25-2.023-12.16 2.835-3.91 8.338-4.808 12.292-2.005 3.952 2.808 4.86 8.253 2.023 12.165zm-.177-4.815c.287 0 .505-.233.482-.517 0 0-.09-1.184-.364-2.03-.28-.847-.91-1.856-.91-1.856-.153-.243-.467-.304-.7-.14l-3.052 2.198c-.232.167-.296.5-.14.74 0 0 .11.17.228.53.12.356.132.56.132.56.014.282.262.515.55.514h3.773zm-4.57-6.752c.088-.27-.068-.548-.346-.616 0 0-1.168-.282-2.065-.284-.9.002-2.068.284-2.068.284-.277.068-.436.346-.348.616l1.17 3.55c.09.268.387.434.668.358 0 0 .196-.053.578-.05.38 0 .576.05.576.05.277.074.58-.086.668-.36l1.165-3.547zm-4.85 4.406l-3.05-2.196c-.232-.167-.55-.105-.7.137 0 0-.633 1.01-.91 1.857-.278.845-.368 2.03-.368 2.03-.02.282.198.518.485.518h3.775c.287-.003.535-.233.55-.52 0 0 .012-.202.13-.56.114-.358.226-.527.226-.527.156-.24.095-.572-.14-.74zm-3.453 6.626s.777.905 1.505 1.43c.725.52 1.837.97 1.837.97.266.11.558-.025.646-.295l1.164-3.55c.09-.273-.057-.576-.326-.68 0 0-.192-.072-.5-.294-.307-.222-.438-.378-.438-.378-.182-.22-.517-.265-.753-.097l-3.05 2.195c-.233.167-.27.483-.086.7zm6.628-1.444l1.165 3.546c.087.273.38.407.646.3 0 0 1.112-.45 1.84-.974.726-.523 1.5-1.43 1.5-1.43.187-.216.15-.532-.08-.7l-3.057-2.193c-.233-.165-.57-.123-.755.1 0 0-.127.157-.436.378-.308.22-.5.295-.5.295-.267.102-.412.406-.325.68z" fill="#013145" fill-rule="evenodd"/></svg>