<svg width="32" height="33" viewBox="0 0 32 33" xmlns="http://www.w3.org/2000/svg"><g fill="#092B3F" fill-rule="evenodd"><path d="M19.386 2.412C19.386 1.02 18.366 0 16.974 0H5.24C3.85 0 2.69 1.02 2.69 2.412v28.336H0v1.994h22.03v-1.994h-2.69l.046-28.336zm-1.995 8.626c0 .556-.462 1.02-1.02 1.02H5.705c-.556 0-1.02-.464-1.02-1.02V3.014c0-.556.464-1.02 1.02-1.02H16.37c.558 0 1.02.464 1.02 1.02v8.024zM31.768 23.513l-1.855-8.533c-.14-.557-.278-1.02-.278-1.53V11.36h.14l1.39-1.67s.557-5.333-7.235-8.3l-1.02 1.622s3.803 3.525 3.757 7.003l.927 1.345v2.087c0 .65.14 1.39.325 1.993l1.808 8.534c.185.88.046 1.716-.464 2.41-.557.65-1.345 1.068-2.226 1.068-1.53 0-2.737-1.206-2.83-2.736L25 17.9v-.138c0-1.994-1.67-3.756-3.665-3.756h-.463V16h.463c.928 0 1.67.742 1.67 1.67l-.742 6.91v.14c0 2.69 2.134 4.822 4.824 4.822 1.484 0 2.875-.65 3.803-1.855.927-1.252 1.206-2.783.88-4.174z"/></g></svg>