<?xml version="1.0" encoding="UTF-8" standalone="no"?>
<svg width="22px" height="33px" viewBox="0 0 22 33" version="1.1" xmlns="http://www.w3.org/2000/svg" xmlns:xlink="http://www.w3.org/1999/xlink">
                            <path d="M3.22159797,17.0585912 C3.12353706,17.1256002 3.08645076,17.1473258 3.05345584,17.1740247 C1.74131371,18.2346514 1.24467411,19.6592468 1.24586193,21.2785871 C1.24757766,23.5546679 1.97808528,25.5623201 3.5119533,27.2880633 C4.56937462,28.4779964 5.72142538,29.5282838 7.18138477,30.20976 C9.11185178,31.1109786 11.1552934,31.2553358 13.2400447,31.073286 C14.4451513,30.968061 15.6140954,30.6987162 16.6224203,29.9961688 C18.2647756,28.8520427 19.2325827,27.2227557 19.5523695,25.3131304 C20.1431107,21.7848191 19.9793239,18.2164595 19.8378416,14.6588318 C19.828735,14.4279649 19.6604609,14.1637243 19.4904711,13.9863861 C19.0253746,13.5012253 18.4128569,13.4609152 17.6633442,13.787584 C17.5064203,13.8560327 17.4513848,13.937569 17.462999,14.1028666 C17.4912426,14.504397 17.5371716,14.9091994 17.5094558,15.3081122 C17.495466,15.5092701 17.3880345,15.7676212 17.2337503,15.8830546 C16.852197,16.1686281 16.3691513,15.8827929 16.3399838,15.3748595 C16.293131,14.5600197 16.2742579,13.7434785 16.2225218,12.9289005 C16.1655066,12.0293833 15.5009888,11.3824586 14.6626538,11.3816733 C13.7753543,11.3808881 13.1120244,12.0312156 13.0594964,12.9536362 C13.0345523,13.3910269 12.8228569,13.6352433 12.4691513,13.6349815 C12.1085827,13.6347198 11.8958315,13.3950841 11.8673239,12.9609653 C11.8364406,12.4942582 11.8328772,12.0234938 11.7638518,11.5624144 C11.6733137,10.9569777 11.236197,10.5220736 10.6887452,10.417503 C9.80659289,10.2489335 9.02131371,10.9039725 8.94146599,11.8512598 C8.88471472,12.5234437 8.80447107,13.194188 8.71736447,13.8633618 C8.66958782,14.231126 8.42516142,14.4337234 8.10326294,14.4177565 C7.75721218,14.4003498 7.55541523,14.1637243 7.51885685,13.7179575 C7.32748629,11.3858614 7.13888731,9.05363443 6.94751675,6.72153833 C6.83810558,5.38750974 6.74532386,4.05177975 6.60780102,2.72063045 C6.48664365,1.54875838 5.45575025,0.906937892 4.44056244,1.33097916 C3.76812589,1.61197194 3.41745584,2.28611903 3.47895838,3.20251932 C3.69091777,6.36228115 3.90617665,9.52178122 4.1197198,12.6815431 C4.30620711,15.4393818 4.49295838,18.1972206 4.67667411,20.9551902 C4.70491777,21.3801476 4.49559797,21.6515864 4.14030863,21.6756677 C3.77604467,21.7004035 3.53135431,21.4695366 3.49585178,21.0498142 C3.45902944,20.6160881 3.43540508,20.1813149 3.40570964,19.7470652 C3.34579086,18.8705824 3.2857401,17.9942304 3.22159797,17.0585912 M8.41565888,10.0570679 C9.97869442,8.62069353 12.0606741,9.13019744 12.8208772,10.856726 C13.6787452,10.2273388 14.6197604,9.99817326 15.6341563,10.3901497 C16.6366741,10.7776763 17.2004914,11.5448769 17.4016284,12.5980436 C17.5899635,12.5492265 17.7677401,12.502896 17.9456487,12.4568274 C19.3159939,12.10202 21.0329178,13.1581968 21.0667046,14.8469019 C21.1303188,18.0146473 21.1965726,21.1782045 20.9118924,24.3411074 C20.7148467,26.5297624 19.8842985,28.4297028 18.4026944,30.042761 C17.2663492,31.2800716 15.7865929,31.8912669 14.1474051,32.1379699 C11.8307655,32.4864952 9.54566904,32.3858508 7.33236954,31.5509868 C5.53375025,30.8725208 4.07748629,29.7164848 2.82407513,28.2943761 C2.0195269,27.3815094 1.26407513,26.4278092 0.803993909,25.2906195 C-0.246696447,22.6937594 -0.345285279,20.1187557 1.08986193,17.6148182 C1.52605482,16.8537688 2.19598376,16.2944008 2.9126335,15.800733 C3.08592284,15.6813733 3.12868426,15.5658089 3.11548629,15.3731581 C2.84413604,11.4424002 2.57476548,7.51151151 2.31621726,3.57983752 C2.2886335,3.15946081 2.27715127,2.72534202 2.34987208,2.31334143 C2.59627817,0.91727717 3.70319188,0.0148807074 5.09755736,0.0245656006 C6.39768934,0.0334652321 7.56478579,1.01373347 7.74638985,2.36372905 C7.91888731,3.64593038 7.98778071,4.94187378 8.09798376,6.2320586 C8.20515127,7.48860805 8.30690761,8.74555013 8.41565888,10.0570679" id="Fill-1"></path>

</svg>
