<svg xmlns="http://www.w3.org/2000/svg" viewBox="0 0 26 26" width="512" height="512"><path d="M20 7c-.551 0-1-.449-1-1V4c0-.551.449-1 1-1h2c.551 0 1 .449 1 1v2c0 .551-.449 1-1 1h-2zM13 9.188c-.726 0-1.396.213-1.973.563.18-.056.367-.093.564-.093 1.068 0 1.933.865 1.933 1.934 0 1.066-.865 1.933-1.933 1.933s-1.933-.866-1.933-1.933c0-.199.039-.386.094-.565-.352.577-.564 1.247-.564 1.973 0 2.107 1.705 3.813 3.813 3.813 2.105 0 3.813-1.705 3.813-3.813S15.105 9.188 13 9.188z" fill="#FFF"/><path d="M13 7c3.313 0 6 2.686 6 6s-2.688 6-6 6c-3.313 0-6-2.686-6-6s2.687-6 6-6m0-2c-4.411 0-8 3.589-8 8s3.589 8 8 8 8-3.589 8-8-3.589-8-8-8z" fill="#FFF"/><path d="M21.125 0H4.875C2.182 0 0 2.182 0 4.875v16.25C0 23.818 2.182 26 4.875 26h16.25C23.818 26 26 23.818 26 21.125V4.875C26 2.182 23.818 0 21.125 0zM24 9h-6.537C18.416 10.063 19 11.461 19 13c0 3.314-2.688 6-6 6-3.313 0-6-2.686-6-6 0-1.539.584-2.938 1.537-4H2V4.875C2 3.29 3.29 2 4.875 2h16.25C22.711 2 24 3.29 24 4.875V9z" fill="#FFF"/></svg>