<svg width="32" height="32" viewBox="0 0 32 32" xmlns="http://www.w3.org/2000/svg"><path d="M16.99 3.995V0h-1.98v3.995C9.156 4.473 4.473 9.155 3.995 15.01H0v1.98h3.995c.478 5.854 5.16 10.537 11.015 11.015V32h1.98v-3.995c5.854-.478 10.537-5.16 11.015-11.015H32v-1.98h-3.995c-.478-5.854-5.16-10.537-11.015-11.015zm-.088 21.11h-1.8c-4.326-.424-7.778-3.876-8.202-8.203v-1.8c.424-4.326 3.876-7.778 8.203-8.202h1.8c4.326.424 7.778 3.876 8.202 8.203v1.8c-.424 4.326-3.876 7.778-8.203 8.202z" fill-rule="evenodd"/></svg>