<svg xmlns="http://www.w3.org/2000/svg" viewBox="0 0 74 50"><g fill-rule="evenodd"><path d="M44.1983616 27.46833c-5.3128122 3.289521-7.394385 5.5017-7.394385 5.5017l-16.383187-11.3953208s6.8915148-5.103001 12.651572-1.1943407l7.7271372 5.33273.940886-.622905-21.318348-15.0328254s3.06636-.8928053 8.986308-4.5544124C34.722404 2.2106726 36.8039767 0 36.8039767 0l16.383187 11.3965763S46.295649 16.499577 40.5340952 12.590917l-7.7256406-5.3342364-.9411352.623156L53.18442 22.9139174s-3.063616.8915502-8.9860584 4.5544126zM40.4944592 38.4609092h-12.469481v2.791398h6.0242135l-6.235489 5.8602284v2.3382163h12.658307v-2.8031984H34.173163l6.3212962-5.8431556M20.6834245 49.731147c4.988042 0 6.264424-1.2819642 6.264424-4.109265v-7.161023h-3.950623v6.7331993c0 1.130569-.960841 1.80419-2.313801 1.80419-1.4070883 0-2.3113065-.6761318-2.3113065-1.8215138V38.460859h-3.9518702v7.161023c0 2.8273008 1.2791258 4.109265 6.2631767 4.109265M47.7343662 49.731147c4.985298 0 6.2631767-1.2819642 6.2631767-4.109265v-7.161023h-3.9518703v6.7331993c0 1.130569-.9623376 1.80419-2.3113065 1.80419-1.4070883 0-2.313801-.6761318-2.313801-1.8215138V38.460859h-3.950623v7.161023c0 2.8273008 1.2776293 4.109265 6.264424 4.109265M69.600558 49.4509527h4.1194936V38.46111H69.600558M68.974889 38.4609092h-5.4223162l-4.384897 3.7916614v-3.7916614h-4.120741V49.450752h4.120741v-3.896609l4.0721 3.896609h5.537058l-6.0254607-5.6382825M4.6817302 41.4980546c0-.8503746 1.2511886-.8782434 1.673739-.8782434.4235484 0 1.3766568.171481 2.0247006 1.2410398h4.65953c0-2.068567-1.9508663-3.7160893-6.669763-3.7160893-5.2427196 0-6.1352142 2.3143646-6.1352142 3.6427768 0 2.4539597 1.8877582 3.1715182 5.9912876 3.6123973.3499636.035903 2.484168-.065027 2.484168.9673733 0 .7665173-1.199804.8184888-1.6405636.8184888-.4397618 0-1.2606673-.0745678-1.9378955-1.288994H0c0 2.4115287 1.616867 3.8077298 7.0616326 3.8077298 5.0144825 0 6.34624-2.0605328 6.34624-3.6282148 0-1.5199787-1.038666-3.0678262-5.3140593-3.6191762-1.783243-.2309845-3.412083-.329404-3.412083-.959088"/></g></svg>
