<?xml version="1.0" encoding="UTF-8" standalone="no"?>
<svg width="160px" height="80px" viewBox="0 0 160 80" version="1.1" xmlns="http://www.w3.org/2000/svg" xmlns:xlink="http://www.w3.org/1999/xlink">
    <!-- Generator: Sketch 40.1 (33804) - http://www.bohemiancoding.com/sketch -->
    <title>suzuki logo</title>
    <desc>Created with Sketch.</desc>
    <defs></defs>
    <g id="Symbols" stroke="none" stroke-width="1" fill="none" fill-rule="evenodd">
        <g id="Suzuki-Logo">
            <g id="suzuki-logo">
                <g id="Group-9">
                    <polygon id="Fill-2" fill="#FEFEFE" points="0 80 80 80 80 0 0 0"></polygon>
                    <g id="Group-6" transform="translate(9.000000, 18.000000)">
                        <path d="M37.2427146,24.0365656 C32.7914396,26.7997633 31.0474192,28.6579938 31.0474192,28.6579938 L17.3209652,19.0859242 C17.3209652,19.0859242 23.094937,14.7994035 27.9209309,18.082678 L34.3950188,22.5621712 L35.1833286,22.0389309 L17.3220101,9.4113577 C17.3220101,9.4113577 19.8911225,8.66140111 24.8510788,5.58565116 C29.3033988,2.82013353 31.0474192,0.963168478 31.0474192,0.963168478 L44.7738733,10.5362926 C44.7738733,10.5362926 38.9999014,14.8228133 34.1726536,11.5395388 L27.6998196,7.05878016 L26.9113009,7.5822313 L44.7715744,20.2108591 C44.7715744,20.2108591 42.2047609,20.9597611 37.2427146,24.0365656 Z" id="Fill-3" fill="#E30613"></path>
                        <polyline id="Fill-5" fill="#004F9E" points="34.1394451 33.2703322 23.692042 33.2703322 23.692042 35.6151065 28.7393561 35.6151065 23.5150275 40.5376983 23.5150275 42.5018 34.120636 42.5018 34.120636 40.1471135 28.843224 40.1471135 34.1394451 35.2388628"></polyline>
                        <path d="M17.5410106,42.737332 C21.7201808,42.737332 22.7895819,41.660482 22.7895819,39.2855492 L22.7895819,33.27029 L19.4796005,33.27029 L19.4796005,38.9261775 C19.4796005,39.8758553 18.6745716,40.4416972 17.5410106,40.4416972 C16.3620988,40.4416972 15.6045105,39.8737463 15.6045105,38.9116254 L15.6045105,33.27029 L12.2934842,33.27029 L12.2934842,39.2855492 C12.2934842,41.660482 13.3651842,42.737332 17.5410106,42.737332" id="Fill-7" fill="#004F9E"></path>
                        <path d="M40.2053131,42.737332 C44.3821845,42.737332 45.4528395,41.660482 45.4528395,39.2855492 L45.4528395,33.27029 L42.1418132,33.27029 L42.1418132,38.9261775 C42.1418132,39.8758553 41.3355303,40.4416972 40.2053131,40.4416972 C39.0264013,40.4416972 38.2667232,39.8737463 38.2667232,38.9116254 L38.2667232,33.27029 L34.9567417,33.27029 L34.9567417,39.2855492 C34.9567417,41.660482 36.0271878,42.737332 40.2053131,42.737332" id="Fill-9" fill="#004F9E"></path>
                        <polygon id="Fill-11" fill="#004F9E" points="58.525636 42.5019688 61.9771035 42.5019688 61.9771035 33.2705009 58.525636 33.2705009"></polygon>
                        <polygon id="Fill-13" fill="#004F9E" points="58.0014267 33.2703322 53.4584051 33.2703322 49.7845724 36.4553278 49.7845724 33.2703322 46.3320599 33.2703322 46.3320599 42.5018 49.7845724 42.5018 49.7845724 39.2286487 53.1963318 42.5018 57.8354888 42.5018 52.7871297 37.7656428"></polygon>
                        <path d="M4.13418562,35.8215344 C4.13418562,35.1072197 5.18247876,35.0838099 5.53650758,35.0838099 C5.89137237,35.0838099 6.68992263,35.2278539 7.23287828,36.1262833 L11.1368089,36.1262833 C11.1368089,34.388687 9.50229918,33.0047683 5.548629,33.0047683 C1.1560801,33.0047683 0.408314382,34.9488346 0.408314382,36.0647008 C0.408314382,38.1260269 1.98994965,38.7287761 5.42804185,39.0991146 C5.72125462,39.1292731 7.50937187,39.0444918 7.50937187,39.9117081 C7.50937187,40.5555826 6.50413064,40.5992386 6.13484556,40.5992386 C5.76639643,40.5992386 5.0786108,40.5366017 4.51120333,39.5164836 L0.211654923,39.5164836 C0.211654923,41.5421678 1.5663272,42.7149767 6.12815788,42.7149767 C10.3294811,42.7149767 11.4452779,40.9841292 11.4452779,39.6672763 C11.4452779,38.3904942 10.5750441,37.0903023 6.99295792,36.6271683 C5.49888941,36.4331412 4.13418562,36.3504689 4.13418562,35.8215344" id="Fill-14" fill="#004F9E"></path>
                    </g>
                </g>
                <g id="Group-8" transform="translate(80.000000, 0.000000)">
                    <polygon id="Fill-2" fill="#002C42" points="0 80 80 80 80 0 0 0"></polygon>
                    <g id="Group-7" transform="translate(16.000000, 34.000000)" fill="#FEFEFE">
                        <polyline id="Fill-17" points="7.55143358 1.23012236 6.61474102 10.0688964 4.3520078 10.0688964 3.78021154 2.76462295 3.18417246 10.0688964 0.970133872 10.0688964 0.0334413163 1.23012236 1.77307292 1.23012236 2.22323708 8.47302421 2.81927616 1.23012236 4.8508666 1.23012236 5.42266286 8.44834904 5.94576448 1.23012236"></polyline>
                        <path d="M10.4090773,8.84127483 L10.4090773,6.76666208 L10.1049971,6.80356939 C9.74010079,6.84026581 9.58294042,7.1962632 9.58294042,7.90825797 C9.58294042,8.7676711 9.74010079,8.95178587 10.0076078,8.95178587 C10.1171185,8.95178587 10.2642474,8.92732159 10.4090773,8.84127483 M11.0295682,10.0689175 L10.6899597,9.44275857 C10.4090773,9.86012754 9.96016712,10.1671964 9.28993663,10.1671964 C8.41510508,10.1671964 7.85438528,9.62708423 7.85438528,8.12928005 C7.85438528,6.92631257 8.2558548,5.98106358 9.70457252,5.83364523 L10.4090773,5.7600415 L10.4090773,5.2690688 C10.4090773,4.63067775 10.3240185,4.42188781 10.0805453,4.42188781 C9.83728108,4.42188781 9.7522222,4.74118879 9.72777039,5.23216149 L8.086782,4.98667514 C8.24477834,4.26244822 8.69389755,3.25561675 10.2034313,3.25561675 C11.6024094,3.25561675 12.1121357,3.98005456 12.1121357,5.57592674 L12.1121357,10.0689175" id="Fill-18"></path>
                        <path d="M15.9684375,10.2530322 C15.6886001,11.5665108 15.0559878,12.0943908 14.082931,12.0943908 C13.7543989,12.0943908 13.4758155,12.0452513 13.2312973,11.9594155 L13.2312973,10.7317728 C13.4392422,10.7931444 13.6582636,10.8300517 13.8273364,10.8300517 C14.1569134,10.8300517 14.3880562,10.6459369 14.4733241,10.0689175 L13.9126043,10.0689175 L12.537869,3.43994241 L14.3991327,3.43994241 L14.9598525,8.69406738 L15.7251733,3.43994241 L17.4161103,3.43994241" id="Fill-19"></path>
                        <path d="M22.6591225,9.00086205 C23.0361402,9.00086205 23.1456509,8.64486466 23.1456509,6.75436667 C23.1456509,4.86386869 23.0118974,4.45873185 22.6470011,4.45873185 C22.2818958,4.45873185 22.1481423,4.88833297 22.1481423,6.75436667 C22.1481423,8.62040038 22.2818958,9.00086205 22.6591225,9.00086205 M22.6470011,3.25576438 C23.9607114,3.25576438 24.8852825,4.0168986 24.8852825,6.75436667 C24.8852825,9.49183475 23.9607114,10.1915974 22.6470011,10.1915974 C21.3330819,10.1915974 20.3963893,9.46737047 20.3963893,6.75436667 C20.3963893,4.04136288 21.3330819,3.25576438 22.6470011,3.25576438" id="Fill-20"></path>
                        <path d="M28.7415634,2.34729616 C28.4982992,2.27369243 28.2427046,2.22455298 28.0481351,2.22455298 C27.6224227,2.22455298 27.5007906,2.34729616 27.5007906,2.87517617 L27.5007906,3.4399635 L28.4861778,3.4399635 L28.4861778,4.66739525 L27.5007906,4.66739525 L27.5007906,10.0689386 L25.7977322,10.0689386 L25.7977322,4.66739525 L25.1893628,4.66739525 L25.1893628,3.4399635 L25.7977322,3.4399635 L25.7977322,2.9487799 C25.7977322,1.40204717 26.4911606,0.923306602 27.5616067,0.923306602 C28.1089511,0.923306602 28.4861778,1.0215855 28.7415634,1.10742137" id="Fill-21"></path>
                        <polyline id="Fill-22" points="33.4250471 1.23012236 33.4250471 8.65713897 35.8215338 8.65713897 35.8215338 10.0688964 31.6003566 10.0688964 31.6003566 1.23012236"></polyline>
                        <path d="M36.2717398,10.0687699 L37.9747982,10.0687699 L37.9747982,3.43979478 L36.2717398,3.43979478 L36.2717398,10.0687699 Z M36.2107148,2.58059255 L38.059857,2.58059255 L38.059857,1.04609196 L36.2107148,1.04609196 L36.2107148,2.58059255 Z" id="Fill-23"></path>
                        <path d="M41.9769749,2.34729616 C41.7337107,2.27369243 41.4781161,2.22455298 41.2835465,2.22455298 C40.8578342,2.22455298 40.7362021,2.34729616 40.7362021,2.87517617 L40.7362021,3.4399635 L41.7215893,3.4399635 L41.7215893,4.66739525 L40.7362021,4.66739525 L40.7362021,10.0689386 L39.0331437,10.0689386 L39.0331437,4.66739525 L38.4247742,4.66739525 L38.4247742,3.4399635 L39.0331437,3.4399635 L39.0331437,2.9487799 C39.0331437,1.40204717 39.7263631,0.923306602 40.7970181,0.923306602 C41.3443626,0.923306602 41.7215893,1.0215855 41.9769749,1.10742137" id="Fill-24"></path>
                        <path d="M43.6302728,6.12831321 L44.5182707,6.12831321 C44.5061493,4.61827689 44.3845172,4.3605584 44.080437,4.3605584 C43.7640263,4.3605584 43.6423942,4.59381262 43.6302728,6.12831321 M44.5061493,8.12932223 L46.0633328,8.37480858 C45.9659435,9.11126763 45.4428419,10.1917028 44.0559851,10.1917028 C42.5719481,10.1917028 41.915093,9.13594281 41.915093,6.75426123 C41.915093,4.1642115 42.5840695,3.25565893 44.0317423,3.25565893 C45.9780649,3.25565893 46.0754542,4.75346311 46.0754542,7.25767696 L43.6302728,7.25767696 C43.6545156,8.74303811 43.7884781,8.95182804 44.0925584,8.95182804 C44.347944,8.95182804 44.4574547,8.65720224 44.5061493,8.12932223" id="Fill-25"></path>
                        <path d="M47.0132335,7.12265947 L46.8307853,1.23014345 L48.6067812,1.23014345 L48.424333,7.12265947 L47.0132335,7.12265947 Z M46.8063335,10.0689175 L48.631024,10.0689175 L48.631024,8.35030213 L46.8063335,8.35030213 L46.8063335,10.0689175 Z" id="Fill-26"></path>
                    </g>
                </g>
            </g>
        </g>
    </g>
</svg>