<svg width="32" height="28" viewBox="0 0 32 28" xmlns="http://www.w3.org/2000/svg"><path d="M32 3.692C32 1.652 30.347 0 28.308 0c-2.04 0-3.693 1.653-3.693 3.692 0 1.606 1.03 2.958 2.462 3.467v2.686c0 1.36-1.102 2.462-2.462 2.462H17.23v-5.15c1.432-.508 2.462-1.86 2.462-3.466C19.692 1.652 18.04 0 16 0c-2.04 0-3.692 1.653-3.692 3.692 0 1.606 1.03 2.958 2.46 3.467v5.148H4.924v-5.15c1.43-.508 2.462-1.86 2.462-3.466C7.385 1.652 5.732 0 3.692 0S0 1.653 0 3.692C0 5.298 1.03 6.65 2.462 7.16v12.758C1.032 20.428 0 21.778 0 23.385c0 2.04 1.653 3.692 3.692 3.692 2.04 0 3.693-1.653 3.693-3.692 0-1.606-1.03-2.958-2.462-3.467v-5.15h9.846v5.15c-1.43.51-2.462 1.862-2.462 3.467 0 2.04 1.653 3.692 3.692 3.692 2.04 0 3.693-1.653 3.693-3.692 0-1.605-1.03-2.958-2.462-3.466v-5.15h7.386c2.714 0 4.923-2.21 4.923-4.924V7.16C30.97 6.65 32 5.297 32 3.69z" fill="#043145" fill-rule="evenodd"/></svg>